<svg xmlns="http://www.w3.org/2000/svg" xmlns:xlink="http://www.w3.org/1999/xlink" width="500" zoomAndPan="magnify" viewBox="0 0 375 374.999991" height="500" preserveAspectRatio="xMidYMid meet" version="1.0"><defs><clipPath id="d9bae8f41b"><path d="M 73.148438 77.871094 L 128.058594 77.871094 L 128.058594 132.777344 L 73.148438 132.777344 Z M 73.148438 77.871094 " clip-rule="nonzero"/></clipPath><clipPath id="06f139c216"><path d="M 100.605469 77.871094 C 85.441406 77.871094 73.148438 90.160156 73.148438 105.324219 C 73.148438 120.488281 85.441406 132.777344 100.605469 132.777344 C 115.765625 132.777344 128.058594 120.488281 128.058594 105.324219 C 128.058594 90.160156 115.765625 77.871094 100.605469 77.871094 Z M 100.605469 77.871094 " clip-rule="nonzero"/></clipPath><clipPath id="df2bf0d89e"><path d="M 0.148438 0.871094 L 55.058594 0.871094 L 55.058594 55.777344 L 0.148438 55.777344 Z M 0.148438 0.871094 " clip-rule="nonzero"/></clipPath><clipPath id="96ce1e1879"><path d="M 27.605469 0.871094 C 12.441406 0.871094 0.148438 13.160156 0.148438 28.324219 C 0.148438 43.488281 12.441406 55.777344 27.605469 55.777344 C 42.765625 55.777344 55.058594 43.488281 55.058594 28.324219 C 55.058594 13.160156 42.765625 0.871094 27.605469 0.871094 Z M 27.605469 0.871094 " clip-rule="nonzero"/></clipPath><clipPath id="6284fe6d84"><rect x="0" width="56" y="0" height="56"/></clipPath><clipPath id="95c2cd0c0d"><path d="M 157.3125 77.871094 L 212.21875 77.871094 L 212.21875 132.777344 L 157.3125 132.777344 Z M 157.3125 77.871094 " clip-rule="nonzero"/></clipPath><clipPath id="5faf8a421a"><path d="M 184.765625 77.871094 C 169.601562 77.871094 157.3125 90.160156 157.3125 105.324219 C 157.3125 120.488281 169.601562 132.777344 184.765625 132.777344 C 199.929688 132.777344 212.21875 120.488281 212.21875 105.324219 C 212.21875 90.160156 199.929688 77.871094 184.765625 77.871094 Z M 184.765625 77.871094 " clip-rule="nonzero"/></clipPath><clipPath id="93f68d7e11"><path d="M 0.3125 0.871094 L 55.21875 0.871094 L 55.21875 55.777344 L 0.3125 55.777344 Z M 0.3125 0.871094 " clip-rule="nonzero"/></clipPath><clipPath id="8a169b4328"><path d="M 27.765625 0.871094 C 12.601562 0.871094 0.3125 13.160156 0.3125 28.324219 C 0.3125 43.488281 12.601562 55.777344 27.765625 55.777344 C 42.929688 55.777344 55.21875 43.488281 55.21875 28.324219 C 55.21875 13.160156 42.929688 0.871094 27.765625 0.871094 Z M 27.765625 0.871094 " clip-rule="nonzero"/></clipPath><clipPath id="677835839c"><rect x="0" width="56" y="0" height="56"/></clipPath><clipPath id="65799eed9d"><path d="M 241.472656 77.871094 L 296.382812 77.871094 L 296.382812 132.777344 L 241.472656 132.777344 Z M 241.472656 77.871094 " clip-rule="nonzero"/></clipPath><clipPath id="b7c5407a5a"><path d="M 268.929688 77.871094 C 253.765625 77.871094 241.472656 90.160156 241.472656 105.324219 C 241.472656 120.488281 253.765625 132.777344 268.929688 132.777344 C 284.089844 132.777344 296.382812 120.488281 296.382812 105.324219 C 296.382812 90.160156 284.089844 77.871094 268.929688 77.871094 Z M 268.929688 77.871094 " clip-rule="nonzero"/></clipPath><clipPath id="0f90b8851e"><path d="M 0.472656 0.871094 L 55.382812 0.871094 L 55.382812 55.777344 L 0.472656 55.777344 Z M 0.472656 0.871094 " clip-rule="nonzero"/></clipPath><clipPath id="ceff066926"><path d="M 27.929688 0.871094 C 12.765625 0.871094 0.472656 13.160156 0.472656 28.324219 C 0.472656 43.488281 12.765625 55.777344 27.929688 55.777344 C 43.089844 55.777344 55.382812 43.488281 55.382812 28.324219 C 55.382812 13.160156 43.089844 0.871094 27.929688 0.871094 Z M 27.929688 0.871094 " clip-rule="nonzero"/></clipPath><clipPath id="1a6042bbed"><rect x="0" width="56" y="0" height="56"/></clipPath><clipPath id="d30c2d95b8"><path d="M 241.472656 157.421875 L 296.382812 157.421875 L 296.382812 212.328125 L 241.472656 212.328125 Z M 241.472656 157.421875 " clip-rule="nonzero"/></clipPath><clipPath id="7615ca485b"><path d="M 268.929688 157.421875 C 253.765625 157.421875 241.472656 169.710938 241.472656 184.875 C 241.472656 200.039062 253.765625 212.328125 268.929688 212.328125 C 284.089844 212.328125 296.382812 200.039062 296.382812 184.875 C 296.382812 169.710938 284.089844 157.421875 268.929688 157.421875 Z M 268.929688 157.421875 " clip-rule="nonzero"/></clipPath><clipPath id="342500d693"><path d="M 0.472656 0.421875 L 55.382812 0.421875 L 55.382812 55.328125 L 0.472656 55.328125 Z M 0.472656 0.421875 " clip-rule="nonzero"/></clipPath><clipPath id="d84ffac79b"><path d="M 27.929688 0.421875 C 12.765625 0.421875 0.472656 12.710938 0.472656 27.875 C 0.472656 43.039062 12.765625 55.328125 27.929688 55.328125 C 43.089844 55.328125 55.382812 43.039062 55.382812 27.875 C 55.382812 12.710938 43.089844 0.421875 27.929688 0.421875 Z M 27.929688 0.421875 " clip-rule="nonzero"/></clipPath><clipPath id="5f61b9372b"><rect x="0" width="56" y="0" height="56"/></clipPath><clipPath id="50bc815be2"><path d="M 160.046875 157.421875 L 214.953125 157.421875 L 214.953125 212.328125 L 160.046875 212.328125 Z M 160.046875 157.421875 " clip-rule="nonzero"/></clipPath><clipPath id="52f4628a50"><path d="M 187.5 157.421875 C 172.335938 157.421875 160.046875 169.710938 160.046875 184.875 C 160.046875 200.039062 172.335938 212.328125 187.5 212.328125 C 202.664062 212.328125 214.953125 200.039062 214.953125 184.875 C 214.953125 169.710938 202.664062 157.421875 187.5 157.421875 Z M 187.5 157.421875 " clip-rule="nonzero"/></clipPath><clipPath id="fc5c06dc5d"><path d="M 0.046875 0.421875 L 54.953125 0.421875 L 54.953125 55.328125 L 0.046875 55.328125 Z M 0.046875 0.421875 " clip-rule="nonzero"/></clipPath><clipPath id="fbd1b03698"><path d="M 27.5 0.421875 C 12.335938 0.421875 0.046875 12.710938 0.046875 27.875 C 0.046875 43.039062 12.335938 55.328125 27.5 55.328125 C 42.664062 55.328125 54.953125 43.039062 54.953125 27.875 C 54.953125 12.710938 42.664062 0.421875 27.5 0.421875 Z M 27.5 0.421875 " clip-rule="nonzero"/></clipPath><clipPath id="4f29d1c065"><rect x="0" width="55" y="0" height="56"/></clipPath><clipPath id="cbf789eaef"><path d="M 73.148438 157.421875 L 128.058594 157.421875 L 128.058594 212.328125 L 73.148438 212.328125 Z M 73.148438 157.421875 " clip-rule="nonzero"/></clipPath><clipPath id="90136b605a"><path d="M 100.605469 157.421875 C 85.441406 157.421875 73.148438 169.710938 73.148438 184.875 C 73.148438 200.039062 85.441406 212.328125 100.605469 212.328125 C 115.765625 212.328125 128.058594 200.039062 128.058594 184.875 C 128.058594 169.710938 115.765625 157.421875 100.605469 157.421875 Z M 100.605469 157.421875 " clip-rule="nonzero"/></clipPath><clipPath id="60b826241e"><path d="M 0.148438 0.421875 L 55.058594 0.421875 L 55.058594 55.328125 L 0.148438 55.328125 Z M 0.148438 0.421875 " clip-rule="nonzero"/></clipPath><clipPath id="11e4f2814c"><path d="M 27.605469 0.421875 C 12.441406 0.421875 0.148438 12.710938 0.148438 27.875 C 0.148438 43.039062 12.441406 55.328125 27.605469 55.328125 C 42.765625 55.328125 55.058594 43.039062 55.058594 27.875 C 55.058594 12.710938 42.765625 0.421875 27.605469 0.421875 Z M 27.605469 0.421875 " clip-rule="nonzero"/></clipPath><clipPath id="d07d3fb269"><rect x="0" width="56" y="0" height="56"/></clipPath><clipPath id="56feca9eac"><path d="M 73.148438 237.078125 L 128.058594 237.078125 L 128.058594 291.988281 L 73.148438 291.988281 Z M 73.148438 237.078125 " clip-rule="nonzero"/></clipPath><clipPath id="f81e0b9f2e"><path d="M 100.605469 237.078125 C 85.441406 237.078125 73.148438 249.371094 73.148438 264.535156 C 73.148438 279.695312 85.441406 291.988281 100.605469 291.988281 C 115.765625 291.988281 128.058594 279.695312 128.058594 264.535156 C 128.058594 249.371094 115.765625 237.078125 100.605469 237.078125 Z M 100.605469 237.078125 " clip-rule="nonzero"/></clipPath><clipPath id="2944f8f1c5"><path d="M 0.148438 0.078125 L 55.058594 0.078125 L 55.058594 54.988281 L 0.148438 54.988281 Z M 0.148438 0.078125 " clip-rule="nonzero"/></clipPath><clipPath id="f03ce0f424"><path d="M 27.605469 0.078125 C 12.441406 0.078125 0.148438 12.371094 0.148438 27.535156 C 0.148438 42.695312 12.441406 54.988281 27.605469 54.988281 C 42.765625 54.988281 55.058594 42.695312 55.058594 27.535156 C 55.058594 12.371094 42.765625 0.078125 27.605469 0.078125 Z M 27.605469 0.078125 " clip-rule="nonzero"/></clipPath><clipPath id="36f5dd2a96"><rect x="0" width="56" y="0" height="55"/></clipPath><clipPath id="fb43522bf2"><path d="M 160.046875 237.078125 L 214.953125 237.078125 L 214.953125 291.988281 L 160.046875 291.988281 Z M 160.046875 237.078125 " clip-rule="nonzero"/></clipPath><clipPath id="95a72da767"><path d="M 187.5 237.078125 C 172.335938 237.078125 160.046875 249.371094 160.046875 264.535156 C 160.046875 279.695312 172.335938 291.988281 187.5 291.988281 C 202.664062 291.988281 214.953125 279.695312 214.953125 264.535156 C 214.953125 249.371094 202.664062 237.078125 187.5 237.078125 Z M 187.5 237.078125 " clip-rule="nonzero"/></clipPath><clipPath id="84087d88bb"><path d="M 0.046875 0.078125 L 54.953125 0.078125 L 54.953125 54.988281 L 0.046875 54.988281 Z M 0.046875 0.078125 " clip-rule="nonzero"/></clipPath><clipPath id="00f5a17b72"><path d="M 27.5 0.078125 C 12.335938 0.078125 0.046875 12.371094 0.046875 27.535156 C 0.046875 42.695312 12.335938 54.988281 27.5 54.988281 C 42.664062 54.988281 54.953125 42.695312 54.953125 27.535156 C 54.953125 12.371094 42.664062 0.078125 27.5 0.078125 Z M 27.5 0.078125 " clip-rule="nonzero"/></clipPath><clipPath id="5717facd68"><rect x="0" width="55" y="0" height="55"/></clipPath><clipPath id="ce0dc8031a"><path d="M 241.472656 237.078125 L 296.382812 237.078125 L 296.382812 291.988281 L 241.472656 291.988281 Z M 241.472656 237.078125 " clip-rule="nonzero"/></clipPath><clipPath id="e82686fa4b"><path d="M 268.929688 237.078125 C 253.765625 237.078125 241.472656 249.371094 241.472656 264.535156 C 241.472656 279.695312 253.765625 291.988281 268.929688 291.988281 C 284.089844 291.988281 296.382812 279.695312 296.382812 264.535156 C 296.382812 249.371094 284.089844 237.078125 268.929688 237.078125 Z M 268.929688 237.078125 " clip-rule="nonzero"/></clipPath><clipPath id="78d8a44bfd"><path d="M 0.472656 0.078125 L 55.382812 0.078125 L 55.382812 54.988281 L 0.472656 54.988281 Z M 0.472656 0.078125 " clip-rule="nonzero"/></clipPath><clipPath id="af9345acad"><path d="M 27.929688 0.078125 C 12.765625 0.078125 0.472656 12.371094 0.472656 27.535156 C 0.472656 42.695312 12.765625 54.988281 27.929688 54.988281 C 43.089844 54.988281 55.382812 42.695312 55.382812 27.535156 C 55.382812 12.371094 43.089844 0.078125 27.929688 0.078125 Z M 27.929688 0.078125 " clip-rule="nonzero"/></clipPath><clipPath id="fbd110591e"><rect x="0" width="56" y="0" height="55"/></clipPath></defs><g clip-path="url(#d9bae8f41b)"><g clip-path="url(#06f139c216)"><g transform="matrix(1, 0, 0, 1, 73, 77)"><g clip-path="url(#6284fe6d84)"><g clip-path="url(#df2bf0d89e)"><g clip-path="url(#96ce1e1879)"><path fill="#ffffff" d="M 0.148438 0.871094 L 55.058594 0.871094 L 55.058594 55.777344 L 0.148438 55.777344 Z M 0.148438 0.871094 " fill-opacity="1" fill-rule="nonzero"/></g></g></g></g></g></g><g clip-path="url(#95c2cd0c0d)"><g clip-path="url(#5faf8a421a)"><g transform="matrix(1, 0, 0, 1, 157, 77)"><g clip-path="url(#677835839c)"><g clip-path="url(#93f68d7e11)"><g clip-path="url(#8a169b4328)"><path fill="#ffffff" d="M 0.3125 0.871094 L 55.21875 0.871094 L 55.21875 55.777344 L 0.3125 55.777344 Z M 0.3125 0.871094 " fill-opacity="1" fill-rule="nonzero"/></g></g></g></g></g></g><g clip-path="url(#65799eed9d)"><g clip-path="url(#b7c5407a5a)"><g transform="matrix(1, 0, 0, 1, 241, 77)"><g clip-path="url(#1a6042bbed)"><g clip-path="url(#0f90b8851e)"><g clip-path="url(#ceff066926)"><path fill="#ffffff" d="M 0.472656 0.871094 L 55.382812 0.871094 L 55.382812 55.777344 L 0.472656 55.777344 Z M 0.472656 0.871094 " fill-opacity="1" fill-rule="nonzero"/></g></g></g></g></g></g><g clip-path="url(#d30c2d95b8)"><g clip-path="url(#7615ca485b)"><g transform="matrix(1, 0, 0, 1, 241, 157)"><g clip-path="url(#5f61b9372b)"><g clip-path="url(#342500d693)"><g clip-path="url(#d84ffac79b)"><path fill="#ffffff" d="M 0.472656 0.421875 L 55.382812 0.421875 L 55.382812 55.328125 L 0.472656 55.328125 Z M 0.472656 0.421875 " fill-opacity="1" fill-rule="nonzero"/></g></g></g></g></g></g><g clip-path="url(#50bc815be2)"><g clip-path="url(#52f4628a50)"><g transform="matrix(1, 0, 0, 1, 160, 157)"><g clip-path="url(#4f29d1c065)"><g clip-path="url(#fc5c06dc5d)"><g clip-path="url(#fbd1b03698)"><path fill="#ffffff" d="M 0.046875 0.421875 L 54.953125 0.421875 L 54.953125 55.328125 L 0.046875 55.328125 Z M 0.046875 0.421875 " fill-opacity="1" fill-rule="nonzero"/></g></g></g></g></g></g><g clip-path="url(#cbf789eaef)"><g clip-path="url(#90136b605a)"><g transform="matrix(1, 0, 0, 1, 73, 157)"><g clip-path="url(#d07d3fb269)"><g clip-path="url(#60b826241e)"><g clip-path="url(#11e4f2814c)"><path fill="#ffffff" d="M 0.148438 0.421875 L 55.058594 0.421875 L 55.058594 55.328125 L 0.148438 55.328125 Z M 0.148438 0.421875 " fill-opacity="1" fill-rule="nonzero"/></g></g></g></g></g></g><g clip-path="url(#56feca9eac)"><g clip-path="url(#f81e0b9f2e)"><g transform="matrix(1, 0, 0, 1, 73, 237)"><g clip-path="url(#36f5dd2a96)"><g clip-path="url(#2944f8f1c5)"><g clip-path="url(#f03ce0f424)"><path fill="#ffffff" d="M 0.148438 0.078125 L 55.058594 0.078125 L 55.058594 54.988281 L 0.148438 54.988281 Z M 0.148438 0.078125 " fill-opacity="1" fill-rule="nonzero"/></g></g></g></g></g></g><g clip-path="url(#fb43522bf2)"><g clip-path="url(#95a72da767)"><g transform="matrix(1, 0, 0, 1, 160, 237)"><g clip-path="url(#5717facd68)"><g clip-path="url(#84087d88bb)"><g clip-path="url(#00f5a17b72)"><path fill="#ffffff" d="M 0.046875 0.078125 L 54.953125 0.078125 L 54.953125 54.988281 L 0.046875 54.988281 Z M 0.046875 0.078125 " fill-opacity="1" fill-rule="nonzero"/></g></g></g></g></g></g><g clip-path="url(#ce0dc8031a)"><g clip-path="url(#e82686fa4b)"><g transform="matrix(1, 0, 0, 1, 241, 237)"><g clip-path="url(#fbd110591e)"><g clip-path="url(#78d8a44bfd)"><g clip-path="url(#af9345acad)"><path fill="#ffffff" d="M 0.472656 0.078125 L 55.382812 0.078125 L 55.382812 54.988281 L 0.472656 54.988281 Z M 0.472656 0.078125 " fill-opacity="1" fill-rule="nonzero"/></g></g></g></g></g></g></svg>